<?xml version="1.0" encoding="UTF-8" standalone="no"?>
<svg
   width="1000"
   height="1000"
   viewBox="0 0 264.5833 264.5833"
   inkscape:version="1.3.2 (091e20e, 2023-11-25, custom)"
   sodipodi:docname="instagram.svg"
   version="1.1"
   id="svg15"
   xmlns:inkscape="http://www.inkscape.org/namespaces/inkscape"
   xmlns:sodipodi="http://sodipodi.sourceforge.net/DTD/sodipodi-0.dtd"
   xmlns:xlink="http://www.w3.org/1999/xlink"
   xmlns="http://www.w3.org/2000/svg"
   xmlns:svg="http://www.w3.org/2000/svg">
  <defs
     id="defs11">
    <radialGradient
       id="f"
       cx="158.429"
       cy="578.088"
       r="52.3515"
       xlink:href="#a"
       gradientUnits="userSpaceOnUse"
       gradientTransform="matrix(0 -4.03418 4.28018 0 -2332.2273 942.2356)"
       fx="158.429"
       fy="578.088" />
    <linearGradient
       id="c">
      <stop
         offset="0"
         stop-color="#780cff"
         id="stop3" />
      <stop
         stop-color="#820bff"
         offset="1"
         stop-opacity="0"
         id="stop4" />
    </linearGradient>
    <linearGradient
       id="a">
      <stop
         offset="0"
         stop-color="#fc0"
         id="stop7" />
      <stop
         offset=".1242"
         stop-color="#fc0"
         id="stop8" />
      <stop
         offset=".5672"
         stop-color="#fe4a05"
         id="stop9" />
      <stop
         offset=".6942"
         stop-color="#ff0f3f"
         id="stop10" />
      <stop
         offset="1"
         stop-color="#fe0657"
         stop-opacity="0"
         id="stop11" />
    </linearGradient>
  </defs>
  <sodipodi:namedview
     pagecolor="#ffffff"
     bordercolor="#666666"
     borderopacity="1"
     inkscape:pageopacity="0"
     inkscape:pageshadow="2"
     inkscape:zoom="1.03"
     inkscape:cx="324.75728"
     inkscape:cy="699.51456"
     inkscape:document-units="mm"
     inkscape:current-layer="g15"
     inkscape:document-rotation="0"
     showgrid="false"
     inkscape:window-width="1920"
     inkscape:window-height="1017"
     inkscape:window-x="-8"
     inkscape:window-y="-8"
     inkscape:window-maximized="1"
     id="namedview11"
     inkscape:showpageshadow="0"
     inkscape:pagecheckerboard="1"
     inkscape:deskcolor="#505050" />
  <g
     inkscape:label="Layer 1"
     inkscape:groupmode="layer"
     id="g15">
    <path
       id="path14"
       d="M 204.15006 18.1429 C 148.91961 18.1429 132.76676 18.199694 129.62696 18.460193 C 118.29277 19.402592 111.23999 21.187819 103.5562 25.014315 C 97.634804 27.955612 92.964571 31.36519 88.355576 36.144385 C 79.961784 44.860076 74.874595 55.58258 73.032997 68.328467 C 72.137698 74.516161 71.877185 75.777796 71.824285 107.38396 C 71.803985 117.91935 71.824285 131.78469 71.824285 150.38237 C 71.824285 205.58312 71.885247 221.72437 72.149847 224.85896 C 73.065546 235.89095 74.795192 242.83162 78.457989 250.42381 C 85.457982 264.9567 98.827247 275.86688 114.57723 279.93777 C 120.03073 281.34217 126.0539 282.1155 133.78639 282.4818 C 137.06259 282.6243 170.45482 282.72623 203.86739 282.72623 C 237.28005 282.72623 270.69271 282.68543 273.8874 282.52263 C 282.84089 282.10123 288.04002 281.403 293.78851 279.9171 C 309.6402 275.82591 322.76546 265.07917 329.90776 250.34268 C 333.49935 242.93369 335.32039 235.72785 336.14459 225.27186 C 336.32359 222.99226 336.39883 186.64593 336.39883 150.34827 C 336.39883 114.0443 336.31748 77.764834 336.13838 75.485136 C 335.30408 64.860247 333.48296 57.715694 329.77547 50.164201 C 326.73337 43.982607 323.35509 39.366281 318.45109 34.646285 C 309.6991 26.284694 298.99576 21.195744 286.24117 19.355746 C 280.06118 18.462147 278.83038 18.1978 247.20841 18.1429 L 204.15006 18.1429 z M 204.1299 52.11602 L 204.16091 52.11602 C 230.8426 52.116157 234.20155 52.232863 244.68867 52.709782 C 255.16136 53.188982 262.31401 54.846048 268.5854 57.276945 C 275.0616 59.785643 280.53395 63.144176 286.00604 68.612171 C 291.47804 74.076065 294.83908 79.560185 297.35987 86.025578 C 299.77817 92.275872 301.43824 99.419081 301.93014 109.88407 C 302.40144 120.36956 302.52442 123.72002 302.52442 150.417 C 302.52442 177.11387 302.40144 180.45627 301.93014 190.94165 C 301.43824 201.40254 299.77817 208.54775 297.35987 214.80015 C 294.83908 221.26344 291.47804 226.74759 286.00604 232.21149 C 280.54015 237.67948 275.0597 241.04645 268.5916 243.55705 C 262.33261 245.98805 255.17593 247.64501 244.70314 248.12421 C 234.20995 248.60141 230.86728 248.71797 204.14851 248.71797 C 177.43383 248.71797 174.08303 248.60121 163.58974 248.12421 C 153.11915 247.64491 145.96854 245.98795 139.70955 243.55705 C 133.24355 241.04635 127.7549 237.67948 122.2889 232.21149 C 116.81891 226.74759 113.45804 221.26347 110.94334 214.79808 C 108.51275 208.54779 106.85426 201.40458 106.37256 190.93959 C 105.89716 180.4542 105.77828 177.11397 105.77828 150.417 C 105.77828 123.72012 105.90171 120.36739 106.37101 109.882 C 106.84231 99.421114 108.50238 92.275905 110.94128 86.023511 C 113.46207 79.560218 116.82311 74.076165 122.29511 68.612171 C 127.763 63.146276 133.25134 59.787643 139.72143 57.276945 C 145.97643 54.845948 153.12532 53.188982 163.59801 52.709782 C 174.08513 52.232863 177.45639 52.116157 204.1299 52.11602 z M 195.33561 69.805896 C 177.00113 69.826496 173.48432 69.949235 164.40933 70.358834 C 154.81794 70.799234 149.61044 72.396593 146.14275 73.748291 C 141.55195 75.53409 138.27274 77.663835 134.82974 81.104432 C 131.38664 84.544928 129.25092 87.821772 127.46792 92.409168 C 126.12142 95.874264 124.51861 101.07586 124.08001 110.66025 C 123.60861 121.02274 123.51467 124.1196 123.51467 150.36997 C 123.51467 176.62044 123.60861 179.73312 124.08001 190.09571 C 124.51651 199.68 126.12142 204.88166 127.46792 208.34266 C 129.25512 212.93216 131.38664 216.2007 134.82974 219.6412 C 138.27274 223.08169 141.55195 225.2115 146.14275 226.9932 C 149.61254 228.3387 154.81794 229.94036 164.40933 230.38266 C 174.77962 230.85366 177.89304 230.95627 204.16091 230.95627 C 230.42678 230.95627 233.54178 230.85366 243.91197 230.38266 C 253.50346 229.94436 258.71341 228.34697 262.17701 226.99527 C 266.7698 225.21357 270.03875 223.08386 273.48174 219.64326 C 276.92484 216.20487 279.06005 212.93832 280.84305 208.35093 C 282.18955 204.88993 283.79236 199.68827 284.23096 190.10398 C 284.70236 179.74149 284.80508 176.62823 284.80508 150.39426 C 284.80508 124.16019 284.70236 121.04754 284.23096 110.68505 C 283.79446 101.10066 282.18955 95.898586 280.84305 92.43759 C 279.05585 87.850295 276.92484 84.57345 273.48174 81.132854 C 270.04075 77.692357 266.7678 75.562546 262.17701 73.780848 C 258.70931 72.435349 253.50346 70.834341 243.91197 70.396041 C 233.53968 69.925042 230.42678 69.830701 204.16091 69.830701 C 200.87771 69.830701 197.95491 69.826601 195.33561 69.830701 L 195.33561 69.805896 z M 256.67192 86.148568 C 263.18921 86.148568 268.47688 91.432354 268.47688 97.944747 C 268.47688 104.45724 263.18911 109.74093 256.67192 109.74093 C 250.15462 109.74093 244.86695 104.45724 244.86695 97.944747 C 244.86695 91.430354 250.15462 86.152702 256.67192 86.152702 L 256.67192 86.148568 z M 204.15884 99.935324 L 204.16091 99.935324 C 232.05922 99.936451 254.67152 122.53912 254.67152 150.417 C 254.67152 178.29557 232.06018 200.88833 204.16091 200.88833 C 176.26164 200.88833 153.64151 178.29557 153.64151 150.417 C 153.64151 122.53912 176.26053 99.936451 204.15884 99.935324 z M 204.16091 117.65 C 186.04993 117.65 171.36963 132.31941 171.36963 150.417 C 171.36963 168.51258 186.04993 183.18399 204.16091 183.18399 C 222.26989 183.18399 236.95219 168.51258 236.95219 150.417 C 236.95219 132.31941 222.26989 117.65 204.16091 117.65 z "
       transform="translate(-71.8155 -18.1429)"
       style="fill:#ffffff" />
  </g>
</svg>
