<?xml version="1.0" encoding="UTF-8" standalone="no"?>
<!-- Created with Inkscape (http://www.inkscape.org/) -->

<svg
   version="1.1"
   id="svg1"
   width="2325.1833"
   height="1120.5803"
   viewBox="0 0 2325.1833 1120.5803"
   sodipodi:docname="LogoHeader2.svg"
   inkscape:version="1.3.2 (091e20e, 2023-11-25, custom)"
   xmlns:inkscape="http://www.inkscape.org/namespaces/inkscape"
   xmlns:sodipodi="http://sodipodi.sourceforge.net/DTD/sodipodi-0.dtd"
   xmlns="http://www.w3.org/2000/svg"
   xmlns:svg="http://www.w3.org/2000/svg">
  <defs
     id="defs1">
    <rect
       x="1214"
       y="678"
       width="883.18323"
       height="228.05005"
       id="rect563" />
    <rect
       x="1214"
       y="678"
       width="2356"
       height="2038"
       id="rect563-3" />
  </defs>
  <sodipodi:namedview
     id="namedview1"
     pagecolor="#505050"
     bordercolor="#ffffff"
     borderopacity="1"
     inkscape:showpageshadow="0"
     inkscape:pageopacity="0"
     inkscape:pagecheckerboard="1"
     inkscape:deskcolor="#505050"
     inkscape:zoom="0.1767767"
     inkscape:cx="1892.2177"
     inkscape:cy="342.23967"
     inkscape:window-width="1920"
     inkscape:window-height="1017"
     inkscape:window-x="-8"
     inkscape:window-y="-8"
     inkscape:window-maximized="1"
     inkscape:current-layer="g1">
    <inkscape:page
       x="0"
       y="0"
       inkscape:label="1"
       id="page1"
       width="2325.1833"
       height="1120.5803"
       margin="0"
       bleed="0" />
  </sodipodi:namedview>
  <g
     id="g1"
     inkscape:groupmode="layer"
     inkscape:label="1"
     transform="translate(-890.17403,-206.80398)">
    <path
       id="path552"
       style="fill:#eb7c1a;fill-opacity:1;stroke:none;stroke-opacity:1;font-variation-settings:normal;opacity:1;vector-effect:none;stroke-width:1;stroke-linecap:butt;stroke-linejoin:miter;stroke-miterlimit:4;stroke-dasharray:none;stroke-dashoffset:0;-inkscape-stroke:none;stop-color:#000000;stop-opacity:1"
       d="m 1704.3926,226.69922 c -9.4579,0 -16.8263,10.14366 -21.375,28.49414 -0.9097,3.67003 -1.7065,7.66745 -2.3848,11.97852 -10e-5,6.7e-4 10e-5,0.001 0,0.002 -0.6782,4.31055 -1.2386,8.93308 -1.6738,13.85351 -0.4354,4.92176 -0.7452,10.13967 -0.9258,15.64063 -0.9431,28.73604 1.7626,54.16541 8.7773,82.4668 13.358,53.89286 24.2007,114.34199 31.1622,172.79687 0,6.4e-4 -10e-5,10e-4 0,0.002 2.3203,19.48429 4.2097,38.74819 5.6171,57.47266 0.9114,12.12443 0.5383,23.3035 -1.0293,33.35742 -3.135,20.10784 -11.0456,35.71368 -23,45.37695 -5.9771,4.83164 -12.965,8.17756 -20.873,9.85743 -4.333,0.92046 -16.5531,0.93262 -23.8223,0.28711 -2.423,-0.21517 -4.2952,-0.50365 -5.1425,-0.85547 -1.1498,-0.47738 -2.1518,0.35743 -3.1739,2.64453 -0.5693,1.27402 -1.397,2.53993 -2.4668,3.79101 -1.0698,1.25107 -2.3825,2.4871 -3.9179,3.69922 -9.213,7.2725 -26.4934,13.70071 -48.0821,17.55469 -3.9256,0.7008 -9.1348,1.23454 -14.8906,1.59766 -5.7552,0.36312 -12.058,0.55557 -18.1719,0.57617 -12.2288,0.041 -23.7048,-0.60771 -28.539,-1.9668 -5.4827,-1.54139 -10.2623,-2.97968 -14.6231,-4.43359 -8.7216,-2.90779 -15.7651,-5.87862 -23.3906,-9.86719 -3.8128,-1.9943 -7.7716,-4.24307 -12.1582,-6.86523 l 23.1973,14.02539 c 24.2426,12.50515 42.9208,17.37609 66.5957,17.37109 39.8153,-0.009 76.696,-10.62896 86.414,-24.88281 2.7178,-3.98643 2.7295,-3.98985 8.877,-3.19727 18.8528,2.43066 34.2763,-1.33378 46.664,-11.38867 7.9146,-6.42382 15.4139,-19.31424 18.8829,-32.45898 1.915,-7.25659 3.8345,-27.02081 3.2128,-33.08399 -0.236,-2.30238 -0.9857,-11.66831 -1.666,-20.81445 -4.0022,-53.81073 -16.5301,-131.55446 -30.8164,-191.23828 -10.1464,-42.38878 -11.2169,-48.39616 -12.6367,-70.95313 -2.8886,-45.89184 5.3377,-84.32847 19.6563,-91.84179 6.0522,-3.17599 16.5387,-0.25866 36.664,10.19726 27.5334,14.30468 49.6746,30.42897 71.7403,52.24805 19.6642,19.44476 30.8674,30.87907 55.3652,69.04492 -10.5479,-22.79246 -23.9273,-45.22871 -39.3652,-65.40234 -14.4243,-18.84915 -40.2327,-44.19115 -59.1348,-58.06641 -8.3614,-6.13782 -12.6117,-9.251 -17.291,-12.22852 -4.679,-2.97726 -9.7858,-5.81791 -19.8614,-11.41211 -15.5798,-8.65035 -27.036,-13.3789 -32.414,-13.3789 z m -87.6582,167.40234 c -4.0004,0 -13.709,10.41927 -22.5215,23.35742 -3e-4,4.6e-4 3e-4,0.002 0,0.002 -2.9372,4.31232 -5.7759,8.90511 -8.2695,13.48437 -3.205,5.88541 -6.4188,13.98056 -9.1211,22.6211 -2.7023,8.64053 -4.8932,17.8268 -6.0508,25.89062 -1.2676,8.83045 -1.709,21.25766 -1.4121,33.85156 9e-4,0.0396 -10e-4,0.0757 0,0.11524 0,6.7e-4 0,0.001 0,0.002 0.1512,6.3166 0.4902,12.67283 1.0039,18.63672 0,6.2e-4 -10e-5,10e-4 0,0.002 0.5137,5.96372 1.2032,11.53654 2.0586,16.28321 3.1336,17.38866 11.974,43.79565 20.1367,60.14843 6.1967,12.4143 17.6221,31.1175 21.416,35.0586 0.8866,0.92095 4.5895,5.08137 8.2285,9.24414 3.8377,4.39011 5.7632,6.39109 6.9102,5.89648 -0.2238,0.14381 -2.5767,-2.50869 -5.3028,-5.99414 -15.485,-19.79875 -29.5462,-49.22986 -36.1484,-75.66015 -14.3938,-57.62208 -5.2811,-113.08592 24.2149,-147.39454 7.6187,-8.86205 14.0082,-14.25059 16.6445,-14.86914 -3.5759,-11.56811 -8.4879,-20.67578 -11.7871,-20.67578 z m 26.6133,0.19141 2.9375,6.43945 c 9.197,21.93249 12.41,41.55318 14.8476,90.67383 1.1049,22.26445 0.5617,54.76906 -1.1211,87.58984 -1.6828,32.82079 -4.504,65.95928 -7.957,89.49219 -0.5368,3.65848 -0.6528,6.95762 -0.2559,7.33203 1.0693,1.00872 7.4072,2.24445 12.4981,2.76172 0.096,-3.3106 -0.2003,-8.36697 1.0957,-19.22656 7.2823,-61.01885 9.206,-141.17584 4.4375,-184.87891 -2.8278,-25.91682 -7.9468,-46.96432 -14.1309,-58.10547 -5.5577,-10.01266 -9.3402,-17.38198 -12.3515,-22.07812 z m 262.3593,14.48242 c 0.1249,0.34169 0.2031,0.64647 0.3262,0.98633 1.027,2.838 1.8692,5.62314 2.7715,8.35547 1.395,4.22212 2.7388,8.49666 3.873,12.60156 0.7602,2.76195 1.4943,5.68328 2.1504,8.45117 1.0242,4.30859 1.9403,8.81076 2.752,13.28516 0.4431,2.46005 0.9539,4.9916 1.3437,7.54492 1.0949,7.13761 2.0529,14.59936 2.8399,22.90625 0.6675,7.04604 0.8551,13.86691 0.5351,20.60156 -0.3199,6.73466 -1.1471,13.38391 -2.5117,20.08789 -1.3646,6.70398 -3.2661,13.46203 -5.7324,20.41602 -2.4663,6.95398 -5.4978,14.10319 -9.1231,21.58789 -7.1099,14.67941 -15.5169,27.81139 -24.3105,38.3125 -2.1987,2.62568 -4.4213,5.0855 -6.6543,7.36523 -6.6978,6.83779 -13.4866,12.04439 -19.9824,15.16016 -8.2152,3.94051 -9.7381,4.29806 -18.4668,4.32617 -8.1411,0.0262 -10.4144,-0.40754 -15.7559,-3.00586 -3.6229,-1.76236 -6.962,-4.46032 -10.0898,-7.49023 l -4.1739,-3.09766 c 9.4916,12.68033 15.0737,18.29594 21.625,21.75586 5.0547,2.66943 6.7347,2.95128 17.3497,2.92578 12.3211,-0.0296 15.5068,-0.98787 25.1484,-7.56836 6.1383,-4.18938 18.6077,-16.65385 24.5625,-24.55273 5.624,-7.45992 17.4434,-26.11208 17.4434,-27.52735 0,-0.37631 1.767,-4.2821 3.9277,-8.67968 5.3801,-10.9501 11.2781,-29.52864 12.9141,-40.6836 1.6829,-11.47596 0.8403,-38.28874 -1.7129,-54.48242 -2.4453,-15.50918 -5.6977,-27.42381 -14.3711,-52.66015 z m -7.5117,88.33984 -7.5547,5.20704 c -8.6899,5.98782 -14.974,10.57756 -20.8867,15.44531 -5.9123,4.86792 -11.4544,10.01394 -18.6621,17.11523 -5.7617,5.67663 -10.6184,10.83104 -14.6641,15.62305 -2e-4,3.2e-4 3e-4,0.002 0,0.002 -4.0451,4.79149 -7.2804,9.21938 -9.7988,13.44336 -2e-4,4e-4 2e-4,0.002 0,0.002 -1.2589,2.11165 -2.3391,4.17196 -3.2519,6.20118 -0.9134,2.03023 -1.6595,4.02827 -2.25,6.01562 -0.5904,1.98687 -1.0251,3.96167 -1.3165,5.94531 -0.2915,1.98426 -0.4391,3.97543 -0.455,5.9961 -0.031,3.97127 0,6.12063 0.5781,8.04101 0.576,1.921 1.6932,3.61107 3.832,6.66407 l 5.6758,5.72656 c -2.0549,-2.03536 -2.2982,-8.96865 -0.543,-15.44141 3.5273,-13.00793 14.5889,-28.52097 32.1231,-45.04883 9.6172,-9.06511 33.8262,-27.92703 34.7148,-27.04687 0.032,0.0316 0.2404,-0.35716 0.3184,-0.43359 1.2171,-6.64135 2.1065,-13.21387 2.1211,-17.5918 z M 1413.9688,654.9668 c -1.8671,0.60486 -2.5788,22.26785 -1.9083,54.16211 0.4204,13.95749 0.6684,26.47978 1.543,44.09765 3.0681,61.79936 -6.1372,96.37038 -32.8965,123.53906 -9.7767,9.92633 -21.82,18.43308 -35.5605,25.23829 -6.8704,3.40269 -14.1641,6.37955 -21.8125,8.89648 -3.8242,1.25847 -7.7384,2.40195 -11.7305,3.42578 -3.9914,1.02362 -8.0635,1.9287 -12.2051,2.70899 -7.4012,1.39444 -20.5027,2.00553 -34.1816,2.06836 l -1.7305,0.10546 c 21.8945,1.44781 38.3875,1.04626 58.7325,-3.04101 41.2635,-8.28984 76.7645,-32.50283 92.4511,-63.05469 4.0294,-7.8477 8.5858,-21.86881 10.8223,-33.29883 2.2308,-11.40098 2.3594,-21.61142 1.3984,-110.49023 -0.2517,-23.27075 -0.1878,-40.09727 0.334,-43.0957 0.1229,-0.70615 -0.014,-1.34257 0.022,-2.0625 -0.1087,-0.0805 -0.6273,-0.55054 -0.7051,-0.60352 -0.5235,-0.35663 -9.929,-9.45205 -12.5722,-8.5957 z m -480.28716,2.31445 c -2.17818,0.16614 -3.64548,0.81037 -4.7793,1.49609 1.4649,2.39495 4.19201,6.85511 7.9668,13.03516 7.41605,12.14145 17.59595,27.52207 27.43164,41.66992 9.8359,14.1483 19.327,27.06275 25.36328,34.27149 16.20344,19.35069 25.17684,29.44331 35.66214,40.10351 7.6042,7.73101 15.3405,15.07395 23.205,22.02539 7.8646,6.95141 15.8568,13.51077 23.9727,19.67774 16.232,12.33443 32.958,23.09424 50.1406,32.26172 17.1824,9.16711 34.8209,16.7416 52.8809,22.70312 9.0299,2.98081 18.1647,5.55835 27.4004,7.73047 6e-4,1.4e-4 0,-1.4e-4 0,0 9.2352,2.17192 18.5722,3.93839 28.0039,5.29687 6.4813,0.9335 11.0445,1.41693 15.9336,1.68946 1.7134,0.10416 3.6628,0.0764 5.4532,0.11133 1.3322,0.0276 3.235,-0.0215 4.7128,-0.0254 -5.5399,-0.17701 -11.0167,-0.55108 -16.3925,-1.28124 -57.1045,-7.75614 -123.5112,-39.7646 -173.4825,-83.61719 -9.9053,-8.69269 -32.8555,-31.27919 -41.1699,-40.51758 -4.4423,-4.93601 -8.3311,-9.22247 -8.6406,-9.52734 -2.8241,-2.78196 -20.80975,-25.63596 -29.23047,-37.14063 -10.57984,-14.45455 -27.61406,-40.02465 -37.61132,-56.46094 -6.4436,-10.59375 -11.38354,-13.91678 -16.82227,-13.50195 z m -18.60156,24.74023 c -0.69915,0.69251 -0.86341,12.87896 -0.64649,26.73829 0.21695,13.85939 0.81503,29.39157 1.64063,36.77734 1.15536,10.33589 2.67465,20.69378 4.55469,31.0625 3.76002,20.73739 8.96079,41.5166 15.5625,62.23828 16.50458,51.80426 41.77008,103.25288 75.20509,152.81445 7.1526,10.60246 13.2851,19.26606 17.2656,24.39066 15.4678,19.9138 34.0739,45.5062 37.4785,51.5508 0.6869,1.2194 3.5251,5.9911 6.3067,10.6035 2.8192,4.6748 5.4031,9.456 7.7363,14.3047 2.3332,4.8485 4.4163,9.7638 6.2344,14.707 3.6364,9.887 6.2123,19.883 7.6132,29.6738 0.5116,3.575 1.0069,9.1962 1.4004,15.4785 0.3936,6.283 0.6854,13.2252 0.7872,19.4434 0.404,24.7 0.7477,26.9322 5.1191,33.2598 9.997,14.4706 30.1711,29.918 57.5859,44.5507 5.4829,2.9266 11.2543,5.821 17.293,8.668 5e-4,3e-4 0,-3e-4 0,0 12.0774,5.6941 25.2179,11.2004 39.2363,16.4043 35.7167,13.2588 73.1612,22.6022 112.6562,28.0527 26.3301,3.6338 53.5733,5.5367 81.8223,5.7168 28.249,0.1802 57.5036,-1.363 87.8633,-4.623 15.1798,-1.63 30.6373,-3.6883 46.3808,-6.1758 21.5229,-3.4007 29.5374,-4.9346 84.2793,-16.1289 19.6919,-4.0269 76.3634,-18.5954 113.045,-29.0605 9.5415,-2.7222 21.1253,-5.9215 25.7421,-7.1075 4.6169,-1.186 12.1722,-3.3543 16.7891,-4.8183 35.2649,-11.1828 57.0024,-16.4259 75.5488,-18.2246 6.5317,-0.6335 11.4273,-0.7203 14.8438,-0.2383 5e-4,1e-4 0,-10e-5 0,0 3.4151,0.4821 5.3521,1.533 5.9629,3.1738 l 4.9336,-4.5977 c 4.6483,-4.3419 4.9713,-6.9361 1.0469,-8.414 -3.8086,-1.4343 -17.6854,-1.3735 -27.6934,0.1211 -9.3535,1.3968 -40.0659,8.8196 -52.2597,12.6308 -13.1046,4.096 -36.6728,10.6578 -76.1094,21.1895 -172.5464,46.0788 -292.5803,58.0883 -402.3691,40.2559 -17.8275,-2.8957 -33.4724,-6.1123 -46.4473,-9.5489 -5.848,-1.5489 -11.6399,-3.0543 -12.8711,-3.3437 -5.3153,-1.249 -34.5148,-10.8699 -44.7715,-14.752 -52.2529,-19.777 -93.1314,-45.4126 -105.3535,-66.0703 -3.1706,-5.359 -3.1832,-5.4595 -3.9316,-30.8867 -0.8257,-28.0522 -2.6071,-41.0803 -7.6778,-56.1387 -7.7731,-23.0834 -21.3646,-44.7703 -54.8301,-87.4863 -43.1124,-55.03024 -75.8602,-115.57305 -95.32027,-176.22462 -8.36517,-26.07188 -11.76693,-40.09512 -17.74805,-73.16992 -2.34666,-12.97674 -4.73723,-44.08402 -3.90039,-57.70898 l -12.34766,-18.41211 c -3.82851,-6.25362 -7.275,-11.0573 -7.66015,-10.67579 z"
       inkscape:label="Línea Naranja" />
    <path
       style="display:inline;opacity:1;fill:#eb7c1a;fill-opacity:1"
       d="m 1376.6272,1326.837 c -70.6548,-2.9451 -142.6811,-19.1867 -207.0603,-46.6912 -12.0604,-5.1525 -33.7547,-15.8363 -39.7332,-19.5673 -3.5853,-2.2376 -17.1256,-11.1813 -21.1057,-13.941 -11.3968,-7.9019 -24.9794,-23.4909 -29.2103,-33.525 -3.1017,-7.3561 -5.2335,-21.8627 -6.7927,-46.2239 -1.9667,-30.7296 -3.8635,-41.7823 -9.6199,-56.0581 -8.1235,-20.1459 -17.2754,-34.8998 -42.2078,-68.0439 -7.1661,-9.5263 -14.0438,-18.6742 -15.2838,-20.3288 -1.2399,-1.6546 -7.33443,-10.385 -13.54327,-19.401 -40.34776,-58.5899 -69.92992,-123.06167 -87.63906,-191.00178 -16.04133,-61.54167 -18.99166,-131.38416 -6.57658,-155.68574 6.83401,-13.37706 21.37879,-13.37207 29.5826,0.0101 0.71835,1.17177 4.96272,8.11709 9.43194,15.43404 14.83213,24.28296 40.72223,61.52407 52.79441,75.94108 16.20346,19.35071 25.17796,29.44232 35.66326,40.10253 60.8335,61.84815 130.1445,98.82789 205.6039,109.69652 13.9888,2.01483 19.4936,2.26932 37.1298,1.71648 22.2948,-0.69887 30.4939,-1.98179 46.9348,-7.34398 10.4838,-3.41928 32.5316,-14.04453 32.5316,-15.67759 0,-0.46872 1.0128,-1.17064 2.2507,-1.55981 3.1192,-0.98059 17.8691,-15.50247 22.242,-21.89807 5.501,-8.04561 11.0386,-20.36726 13.5635,-30.18009 4.9901,-19.39362 5.1585,-26.97287 2.6615,-119.75546 -0.6908,-25.66699 0.5732,-48.85608 3.1222,-57.28344 1.9043,-6.29569 7.0336,-11.75725 12.3816,-13.18365 8.6663,-2.31146 17.4696,0.37149 28.7811,8.77153 6.5331,4.85149 31.6393,25.80802 34.7566,29.01184 3.7838,3.88881 28.3945,22.57227 32.9809,25.0378 1.2514,0.67271 5.0454,2.74632 8.4311,4.60802 12.2953,6.76075 16.7211,7.46288 47.0083,7.4575 24.6901,-0.004 28.4249,-0.25321 37.4947,-2.49789 17.9178,-4.43445 30.1869,-8.34445 31.6187,-10.07647 2.4332,-2.94333 1.6581,-7.84698 -1.7474,-11.05437 -1.7305,-1.6299 -7.0091,-6.60764 -11.7302,-11.06164 -36.6092,-34.53841 -61.0805,-89.83416 -65.9614,-149.04772 -4.3761,-53.08959 14.1787,-107.865 46.5596,-137.44819 8.7838,-8.02481 16.3079,-11.40005 25.2532,-11.32833 13.2221,0.10601 21.2513,7.27418 29.0921,25.9721 9.1971,21.93251 12.4101,41.55404 14.8477,90.67474 2.2098,44.52895 -2.1733,130.01481 -9.0794,177.08067 -0.5368,3.65848 -0.6513,6.95811 -0.2544,7.33252 1.3194,1.24474 11.1575,3.19961 16.0472,3.18862 2.6937,-0.006 7.5506,-0.74133 10.4838,-2.62282 27.4641,-17.61691 22.9117,-61.51221 16.8657,-118.24705 -7.1927,-67.495 -23.9885,-144.76478 -32.593,-179.55773 -8.724,-35.27605 -12.2974,-87.45702 -4.5975,-118.40304 5.0708,-20.37961 10.0252,-33.2912 18.4685,-41.87092 9.7421,-9.89947 23.7736,-13.3778 37.0514,-10.55724 9.9032,2.1037 31.1724,11.98214 49.5894,23.03171 9.7616,5.8566 19.6994,12.3744 20.9173,13.71884 0.3078,0.33976 4.5889,3.67002 9.5136,7.40057 11.3009,8.56068 13.2046,10.22544 26.8619,23.49018 13.4763,13.08895 16.9254,16.83023 26.143,28.35745 3.9006,4.87797 7.9245,9.88884 8.942,11.13527 11.6859,14.31483 32.2983,50.01334 41.58,72.0119 15.4876,36.70751 21.1627,58.77554 24.6902,96.01044 2.6701,28.18419 -2.3311,52.75449 -16.832,82.69333 -14.2199,29.35886 -33.6228,52.52934 -50.9459,60.83849 -8.2152,3.94051 -9.7388,4.29736 -18.4675,4.32547 -8.1411,0.0262 -10.414,-0.4074 -15.7555,-3.00572 -10.3467,-5.03319 -19.4307,-16.16203 -22.9331,-28.09548 -6.3401,-21.60219 6.9269,-49.94987 37.1671,-79.41521 8.3398,-8.12615 14.1662,-13.03659 31.7411,-26.75111 2.4124,-1.88251 23.3919,-15.4853 27.7013,-17.96109 4.5776,-2.62985 4.5935,-3.81411 0.3379,-25.08545 -8.4393,-42.18325 -30.8254,-89.64765 -60.6835,-128.66496 -14.4243,-18.84917 -40.2317,-44.19042 -59.1338,-58.06569 -16.7216,-12.27474 -17.0009,-12.45241 -37.152,-23.64085 -15.5799,-8.65036 -27.0364,-13.37904 -32.4144,-13.37904 -15.1327,0 -24.9158,25.96835 -26.36,69.96997 -0.9431,28.73607 1.7638,54.16509 8.7786,82.4665 17.8106,71.85723 31.1494,155.37011 36.7792,230.27058 3.6453,48.49778 -13.2708,81.8731 -44.9028,88.59259 -5.7774,1.22729 -25.5763,0.83852 -28.9657,-0.56877 -1.1498,-0.47738 -2.151,0.35696 -3.1731,2.64406 -4.5547,10.19216 -25.681,19.9066 -54.4671,25.04546 -15.7026,2.80321 -51.9323,2.92465 -61.6007,0.20648 -21.9305,-6.16557 -32.6256,-10.67756 -50.1719,-21.16624 -9.5245,-5.69343 -31.2459,-20.92252 -34.9566,-24.50831 -3.2504,-3.14101 -16.7363,-14.67513 -18.8108,-16.08828 -0.5235,-0.35663 -9.9302,-9.45273 -12.5735,-8.59638 -2.6433,0.85635 -3.1247,42.66261 -0.3646,98.26007 3.0681,61.79942 -6.1378,96.3702 -32.8971,123.53891 -19.5535,19.85267 -48.1701,34.02553 -81.3074,40.26881 -16.534,3.11512 -60.5241,2.83147 -79.2857,-0.51124 -28.5978,-5.09517 -51.4016,-11.6432 -76.5382,-21.97761 -16.1732,-6.6493 -40.486,-18.81333 -50.85,-25.44092 -17.7155,-11.3288 -22.9003,-14.81063 -31.1656,-20.92883 -19.8048,-14.66004 -36.2569,-29.18714 -55.9623,-49.41422 -15.17372,-15.57547 -14.59059,-14.94098 -24.01635,-26.13116 -4.59082,-5.45017 -8.64892,-10.15884 -9.01801,-10.46372 -3.51171,-2.90075 -41.47604,-55.83529 -49.82259,-69.46879 -3.82852,-6.25362 -7.27607,-11.05809 -7.66122,-10.67658 -1.39829,1.38502 -0.65695,48.74438 0.99424,63.51594 9.24293,82.6872 41.82738,166.81702 95.32343,246.11561 7.1526,10.60255 13.2848,19.26525 17.2653,24.38985 15.4678,19.9139 34.0744,45.5067 37.479,51.5513 0.6869,1.2195 3.5248,5.991 6.3064,10.6034 11.2771,18.6995 18.7822,39.1054 21.5839,58.6859 1.0231,7.15 1.9836,22.487 2.1871,34.9218 0.4041,24.7 0.7476,26.9313 5.119,33.2589 15.9952,23.1531 58.0447,48.8073 114.1183,69.623 95.2448,35.3569 202.7728,42.8707 328.7209,22.9704 21.5229,-3.4007 29.5385,-4.9347 84.2805,-16.129 19.6919,-4.0269 76.3621,-18.5953 113.0437,-29.0605 9.5416,-2.7222 21.1258,-5.9198 25.7426,-7.1058 4.6169,-1.186 12.1718,-3.3542 16.7887,-4.8182 35.2649,-11.1828 57.0027,-16.4268 75.5491,-18.2255 13.0633,-1.2669 19.5866,-0.3466 20.8086,2.9357 0.7655,2.0561 0.084,3.1541 -4.2212,6.7989 -6.0941,5.1597 -21.9877,13.1199 -37.0696,18.5659 -5.9712,2.1562 -12.6195,4.6036 -14.7741,5.4386 -10.2032,3.9546 -91.2722,26.6806 -105.209,29.4933 -2.7701,0.559 -11.0805,2.4816 -18.4675,4.2724 -28.8161,6.9858 -51.2421,11.697 -84.503,17.7524 -10.1572,1.8491 -21.2377,3.8672 -24.6234,4.4845 -9.5734,1.7456 -51.9076,7.5796 -64.3566,8.8689 -51.9298,5.3782 -75.6237,6.704 -114.7226,6.4191 -15.6974,-0.1143 -31.8146,-0.3443 -35.8159,-0.5111 z m 254.5153,-676.6418 c 9.1305,-87.99311 9.1597,-180.55338 0.071,-225.16638 -3.2633,-16.01801 -10.2432,-30.92689 -14.4792,-30.92689 -5.3338,0 -20.8147,18.52389 -30.7904,36.84289 -6.4099,11.77082 -12.8565,32.38377 -15.1718,48.51142 -2.5432,17.71639 -1.7727,49.90177 1.6493,68.89069 3.1336,17.38868 11.9748,43.79684 20.1375,60.14964 6.1967,12.41431 17.6214,31.11726 21.4153,35.05836 0.8866,0.92095 4.5892,5.08035 8.2282,9.24312 7.4578,8.53139 7.7951,8.43318 8.9402,-2.60285 z m 213.5181,-42.2618 c 5.5868,-2.77082 17.653,-15.05042 24.2342,-24.66272 7.9961,-11.67894 13.6918,-22.56029 21.548,-41.16679 3.6039,-8.53536 7.7002,-29.25954 7.7331,-39.12363 l 0.02,-5.86476 -7.5549,5.20575 c -17.3799,11.9757 -25.1326,18.35885 -39.5488,32.56226 -23.0468,22.70659 -31.6098,37.06815 -31.7374,53.22848 -0.063,7.94258 0.1347,8.60073 4.4113,14.70526 6.2011,8.8515 10.9961,10.02557 20.895,5.11615 z"
       id="path551"
       sodipodi:nodetypes="sssssssssssssssssssssssssssssscsssssssssssssssssssssssssssssssssssssssssssssssssszsssssssssssssssssssssssssssssssssssssssssssssssssccssccssssc"
       inkscape:label="Línea Azul" />
    <path
       id="path552-4"
       style="font-variation-settings:normal;vector-effect:none;fill:#eb7c1a;fill-opacity:1;stroke:none;stroke-width:1;stroke-linecap:butt;stroke-linejoin:miter;stroke-miterlimit:4;stroke-dasharray:none;stroke-dashoffset:0;stroke-opacity:1;-inkscape-stroke:none;stop-color:#000000"
       inkscape:label="Línea Conjunta"
       d="M 1703.5041 206.81765 C 1693.4995 207.07005 1683.7814 210.88329 1676.4748 218.30789 C 1668.0315 226.8876 1663.0769 239.79939 1658.0061 260.17898 C 1650.3062 291.12497 1653.8797 343.30531 1662.6037 378.58132 C 1671.2082 413.37424 1688.0028 490.64303 1695.1955 558.13796 C 1701.2415 614.87275 1705.7944 658.76912 1678.3303 676.38601 C 1675.3971 678.2675 1670.5396 679.00306 1667.8459 679.00906 C 1664.9284 679.01562 1660.7718 678.31233 1657.1916 677.48757 C 1659.4202 677.935 1661.9657 678.34444 1664.2971 678.58132 C 1664.3931 675.27073 1664.0968 670.21434 1665.3928 659.35476 C 1672.6751 598.33597 1674.5988 518.17888 1669.8303 474.47586 C 1667.0025 448.55906 1661.8835 427.51153 1655.6994 416.37039 C 1650.1417 406.35774 1646.3592 398.9884 1643.3479 394.29226 L 1646.2854 400.73171 C 1638.4446 382.03381 1630.4156 374.86702 1617.1936 374.76101 C 1608.2483 374.68929 1600.7234 378.06433 1591.9397 386.08914 C 1559.5588 415.6723 1541.005 470.44686 1545.3811 523.5364 C 1550.262 582.7499 1574.7328 638.04685 1611.342 672.58523 C 1616.0631 677.03923 1621.342 682.01588 1623.0725 683.64578 C 1626.478 686.85316 1627.2537 691.75714 1624.8205 694.70046 C 1623.3887 696.43248 1611.1192 700.34219 1593.2014 704.77664 C 1584.1316 707.02131 1580.3973 707.27068 1555.7072 707.27468 C 1525.4201 707.28006 1520.9928 706.5784 1508.6975 699.81765 C 1505.3118 697.95595 1501.5192 695.88099 1500.2678 695.20828 C 1495.6814 692.74275 1471.0692 674.05997 1467.2854 670.17117 C 1464.1681 666.96735 1439.0626 646.01093 1432.5295 641.15945 C 1421.218 632.75942 1412.4145 630.07651 1403.7482 632.38796 C 1398.4003 633.81436 1393.2717 639.27587 1391.3674 645.57156 C 1388.8184 653.99891 1387.5535 677.1878 1388.2443 702.85476 C 1390.7413 795.63726 1390.5723 803.21702 1385.5822 822.61062 C 1383.0573 832.42344 1377.5207 844.74471 1372.0197 852.79031 C 1367.6468 859.1859 1352.8967 873.70816 1349.7775 874.68875 C 1348.5396 875.07792 1347.5275 875.78057 1347.5275 876.24929 C 1347.5275 877.88235 1325.4781 888.50775 1314.9943 891.92703 C 1298.5535 897.28921 1290.3555 898.57191 1268.0607 899.27078 C 1263.1808 899.42375 1260.4885 899.31826 1257.0295 899.32742 C 1251.4896 899.15041 1246.0127 898.77633 1240.6369 898.04617 C 1183.5325 890.29004 1117.1257 858.28153 1067.1545 814.42898 C 1057.2492 805.7363 1034.299 783.14978 1025.9846 773.9114 C 1021.5423 768.9754 1017.6535 764.68893 1017.344 764.38406 C 1014.5199 761.6021 996.53419 738.74809 988.11348 727.24343 C 977.53365 712.7889 960.49941 687.21877 950.50216 670.7825 C 944.05934 660.19003 939.11979 656.86666 933.68184 657.28054 L 933.67989 657.28054 C 931.50305 657.44698 930.03594 658.09117 928.90255 658.77664 C 928.63331 658.33646 927.54925 656.56211 927.4377 656.38015 C 919.2339 642.998 904.68772 642.99139 897.85372 656.36843 C 885.43865 680.66999 888.39053 750.51432 904.43184 812.05593 C 922.14096 879.99598 951.72279 944.46611 992.07051 1003.0559 C 998.27935 1012.0719 1004.3736 1020.8037 1005.6135 1022.4583 C 1006.8535 1024.1129 1013.7306 1033.2601 1020.8967 1042.7864 C 1045.8291 1075.9305 1054.9822 1090.6854 1063.1057 1110.8313 C 1068.8621 1125.1071 1070.7581 1136.1584 1072.7248 1166.888 C 1074.284 1191.2491 1076.4161 1205.7565 1079.5178 1213.1126 C 1083.7487 1223.1467 1097.3319 1238.7361 1108.7287 1246.638 C 1112.7088 1249.3977 1126.2489 1258.3418 1129.8342 1260.5794 C 1135.8127 1264.3104 1157.5062 1274.9933 1169.5666 1280.1458 C 1233.9457 1307.6502 1305.9724 1323.8921 1376.6272 1326.8372 C 1380.6285 1327.004 1396.7462 1327.2346 1412.4436 1327.3489 C 1451.5424 1327.6338 1475.2365 1326.3072 1527.1662 1320.929 C 1539.6152 1319.6397 1581.9483 1313.8054 1591.5217 1312.0598 C 1594.9074 1311.4425 1605.9875 1309.4246 1616.1447 1307.5755 C 1649.4056 1301.5201 1671.8326 1296.8093 1700.6486 1289.8235 C 1708.0356 1288.0327 1716.3453 1286.1091 1719.1154 1285.5501 C 1733.0522 1282.7374 1814.1212 1260.0125 1824.3244 1256.0579 C 1826.479 1255.2229 1833.1286 1252.7746 1839.0998 1250.6184 C 1854.1817 1245.1724 1870.0741 1237.2117 1876.1682 1232.052 C 1880.4734 1228.4072 1881.1563 1227.3093 1880.3908 1225.2532 C 1880.3905 1225.2524 1880.3892 1225.2521 1880.3889 1225.2512 L 1885.3205 1220.6555 C 1889.9688 1216.3136 1890.2918 1213.7194 1886.3674 1212.2415 C 1882.5588 1210.8072 1868.682 1210.868 1858.674 1212.3626 C 1849.3205 1213.7594 1818.6081 1221.1822 1806.4143 1224.9934 C 1793.3097 1229.0894 1769.7414 1235.6512 1730.3049 1246.1829 C 1557.7587 1292.2616 1437.7244 1304.2711 1327.9357 1286.4387 C 1310.1083 1283.543 1294.4634 1280.3265 1281.4885 1276.8899 C 1275.6405 1275.341 1269.8486 1273.8356 1268.6174 1273.5462 C 1263.3021 1272.2972 1234.1026 1262.6763 1223.8459 1258.7942 C 1171.5931 1239.0172 1130.7145 1213.3816 1118.4924 1192.7239 C 1115.3218 1187.3649 1115.3091 1187.2644 1114.5607 1161.8372 C 1113.735 1133.785 1111.9537 1120.7569 1106.883 1105.6985 C 1099.1099 1082.6151 1085.5184 1060.9281 1052.0529 1018.2122 C 1008.9406 963.18202 976.19267 902.63908 956.73262 841.98757 C 948.36746 815.91572 944.96569 801.89242 938.98458 768.81765 C 936.63792 755.84092 934.24735 724.73361 935.08419 711.10867 L 922.73653 692.69656 C 918.91079 686.44746 915.46957 681.65093 915.08028 682.02468 C 914.38154 682.72232 914.21693 694.90293 914.4338 708.75906 C 914.2169 694.90285 914.38154 682.72232 915.08028 682.02468 C 915.08044 682.02452 915.08012 682.02094 915.08028 682.02078 C 915.46543 681.63927 918.91192 686.4449 922.74044 692.69851 C 931.08698 706.332 969.051 759.26651 972.5627 762.16726 C 972.93179 762.47214 976.98946 767.17999 981.58028 772.63015 C 991.00603 783.82032 990.42415 783.18556 1005.5979 798.76101 C 1025.3032 818.98807 1041.756 833.51505 1061.5607 848.17507 C 1069.826 854.29327 1075.0093 857.77597 1092.7248 869.10476 C 1103.0888 875.73234 1127.4032 887.89687 1143.5764 894.54617 C 1168.7129 904.88057 1191.5157 911.42757 1220.1135 916.52273 C 1230.4709 918.36808 1248.3188 919.18113 1265.1897 919.10476 L 1263.4865 919.20828 C 1285.381 920.65609 1301.874 920.25453 1322.219 916.16726 C 1363.4824 907.87743 1398.9835 883.6644 1414.6701 853.11257 C 1418.6995 845.26488 1423.2559 831.24375 1425.4924 819.81375 C 1427.7232 808.41278 1427.8518 798.20223 1426.8908 709.32351 C 1426.6391 686.05278 1426.703 669.22624 1427.2248 666.22781 C 1427.3476 665.52233 1427.2107 664.88635 1427.2463 664.16726 C 1430.0374 666.2329 1442.2232 676.6284 1445.3518 679.65164 C 1449.0625 683.23742 1470.7843 698.46602 1480.3088 704.15945 L 1503.5061 718.18484 C 1527.7486 730.68998 1546.4269 735.56093 1570.1018 735.55593 C 1609.917 735.54693 1646.7978 724.92696 1656.5158 710.67312 C 1659.2336 706.68669 1659.2453 706.68328 1665.3928 707.47586 C 1684.2456 709.90651 1699.6692 706.14206 1712.0568 696.08718 C 1719.9714 689.66337 1727.4707 676.77293 1730.9397 663.6282 C 1732.8547 656.37162 1734.7742 636.60739 1734.1525 630.54421 C 1733.9165 628.24184 1733.1668 618.87589 1732.4865 609.72976 C 1728.4843 555.91909 1715.9564 478.17524 1701.6701 418.49148 C 1691.5237 376.10274 1690.4532 370.0953 1689.0334 347.53836 C 1686.1448 301.64656 1694.3711 263.20987 1708.6897 255.69656 C 1714.7418 252.52057 1725.2284 255.43791 1745.3537 265.89382 C 1772.8871 280.19849 1795.0283 296.32281 1817.094 318.14187 C 1836.7577 337.58616 1847.9606 349.02116 1872.4572 387.18484 C 1872.4578 387.18573 1872.4586 387.1859 1872.4592 387.18679 C 1882.3117 408.4766 1889.6998 430.07586 1893.7756 450.44851 C 1898.0312 471.71983 1898.0153 472.9046 1893.4377 475.53445 C 1889.1283 478.01024 1868.1489 491.61288 1865.7365 493.49539 C 1848.1616 507.20989 1842.3361 512.1212 1833.9963 520.24734 C 1803.7561 549.71265 1790.4882 578.05923 1796.8283 599.6614 C 1799.1031 607.41196 1803.8619 614.6369 1809.6623 620.25906 L 1805.4982 617.16921 C 1814.9898 629.84953 1820.572 635.46516 1827.1232 638.92507 C 1832.1779 641.5945 1833.8579 641.87635 1844.4729 641.85086 C 1856.7939 641.82126 1859.9797 640.86298 1869.6213 634.2825 C 1875.7596 630.09312 1888.229 617.62863 1894.1838 609.72976 C 1899.8078 602.26985 1911.6272 583.61769 1911.6272 582.20242 C 1911.6272 581.82611 1913.3942 577.92031 1915.5549 573.52273 C 1920.935 562.57264 1926.833 543.99409 1928.469 532.83914 C 1930.1519 521.36319 1929.3093 494.55038 1926.7561 478.35671 C 1924.3108 462.84755 1921.0584 450.93287 1912.385 425.69656 L 1905.7072 408.77468 C 1905.8319 409.11576 1905.9107 409.41993 1906.0334 409.75906 C 1903.4443 402.60465 1900.5781 395.20465 1897.0725 386.89578 C 1887.7908 364.89724 1867.1783 329.19887 1855.4924 314.88406 C 1854.4749 313.63763 1850.4516 308.62726 1846.551 303.74929 C 1837.3334 292.22208 1833.8847 288.48081 1820.4084 275.39187 C 1806.7511 262.12714 1804.846 260.46231 1793.5451 251.90164 C 1788.6204 248.17109 1784.3393 244.84101 1784.0315 244.50125 C 1782.8136 243.15681 1772.877 236.63909 1763.1154 230.7825 C 1744.6985 219.73294 1723.4288 209.85299 1713.5256 207.74929 C 1710.2061 207.04415 1706.839 206.73352 1703.5041 206.81765 z M 1709.5354 227.57351 C 1715.7566 229.30894 1725.1219 233.58965 1736.8068 240.07742 C 1725.122 233.58966 1715.7566 229.3089 1709.5354 227.57351 z M 1699.551 227.77468 C 1699.2207 227.91024 1698.8885 228.03668 1698.5647 228.20046 C 1698.8891 228.03638 1699.2201 227.91045 1699.551 227.77468 z M 1694.3088 231.28835 C 1694.0894 231.50572 1693.8857 231.7824 1693.6701 232.01492 C 1693.886 231.78203 1694.0891 231.50605 1694.3088 231.28835 z M 1691.0705 235.5071 C 1689.9578 237.16289 1688.9215 239.08904 1687.9377 241.19851 C 1688.9224 239.08655 1689.9566 237.16447 1691.0705 235.5071 z M 1686.6037 244.05789 C 1685.2801 247.36866 1684.0562 251.00341 1683.0178 255.19265 C 1684.0563 251.00316 1685.28 247.36882 1686.6037 244.05789 z M 1833.094 321.78445 C 1836.9218 326.78655 1840.6152 331.934 1844.1838 337.18484 C 1840.6204 331.9328 1836.9224 326.78727 1833.094 321.78445 z M 1845.4475 339.14968 C 1848.5956 343.8495 1851.6609 348.61017 1854.5803 353.45828 C 1851.6669 348.6082 1848.591 343.85131 1845.4475 339.14968 z M 1854.8518 353.93484 C 1861.3597 364.78021 1867.2489 375.92768 1872.4553 387.17703 C 1867.2503 375.93069 1861.3426 364.77857 1854.8518 353.93484 z M 1686.8107 379.13601 C 1690.8262 395.33628 1694.5233 412.23706 1698.0471 429.38992 C 1694.5253 412.24856 1690.8236 395.32584 1686.8107 379.13601 z M 1616.7443 394.10671 C 1617.4897 394.11047 1618.3374 394.71011 1619.217 395.55984 C 1618.3387 394.70048 1617.4918 394.11042 1616.7443 394.10671 z M 1616.719 394.10867 C 1615.8271 394.11329 1614.5744 394.78882 1613.1916 395.73562 C 1614.5764 394.78658 1615.826 394.11366 1616.719 394.10867 z M 1619.7131 396.06179 C 1620.219 396.62102 1620.7388 397.51011 1621.2658 398.29226 C 1620.7436 397.50732 1620.215 396.62484 1619.7131 396.06179 z M 1612.1272 396.51296 C 1611.3888 397.08855 1610.5216 397.95981 1609.6975 398.72586 C 1610.5323 397.94876 1611.3801 397.09497 1612.1272 396.51296 z M 1623.4006 401.95046 C 1623.9962 403.10606 1624.5487 404.25707 1625.133 405.60867 C 1624.5616 404.27462 1623.9827 403.09627 1623.4006 401.95046 z M 1604.3908 404.2825 C 1603.6607 405.12301 1602.9498 405.90992 1602.1994 406.82742 C 1602.9676 405.88733 1603.6438 405.14194 1604.3908 404.2825 z M 1626.6525 409.52468 C 1627.3006 411.25799 1627.9329 412.87467 1628.5197 414.77273 C 1627.9412 412.90134 1627.2885 411.23909 1626.6525 409.52468 z M 1628.5217 414.77664 C 1629.537 418.06113 1630.4914 421.48638 1631.2131 425.02859 C 1640.3018 469.64154 1640.2733 562.20158 1631.1428 650.19461 C 1630.5871 655.54987 1630.1946 658.22667 1629.1135 658.69461 C 1627.9666 659.19098 1626.0422 657.18962 1622.2033 652.79812 C 1626.041 657.18823 1627.9665 659.18921 1629.1135 658.69461 C 1628.8897 658.83841 1626.5368 656.18591 1623.8107 652.70046 C 1608.3258 632.90173 1594.2645 603.47057 1587.6623 577.04031 C 1573.2685 519.41829 1582.3812 463.95436 1611.8772 429.64578 C 1619.4958 420.78374 1625.8854 415.39519 1628.5217 414.77664 z M 1701.0334 444.63601 C 1703.5213 457.45861 1705.8438 470.34594 1708.0158 483.39382 C 1705.8472 470.36805 1703.5168 457.43725 1701.0334 444.63601 z M 1921.7639 482.90554 C 1922.4314 489.95158 1922.619 496.77246 1922.299 503.50711 C 1922.619 496.77245 1922.4314 489.95158 1921.7639 482.90554 z M 1569.4787 494.97781 C 1569.2867 499.77575 1569.3084 504.98451 1569.3791 510.18484 C 1569.3086 504.98368 1569.2859 499.77606 1569.4787 494.97781 z M 1710.5979 499.0657 C 1713.3467 516.72336 1715.8852 534.40136 1717.9729 551.93093 C 1715.8866 534.41341 1713.3444 516.71128 1710.5979 499.0657 z M 1897.5334 511.14187 C 1897.1765 514.1159 1896.6553 517.29513 1896.0549 520.57156 C 1894.5297 528.89406 1892.448 537.35762 1890.4436 542.10476 C 1882.5874 560.71124 1876.8908 571.59185 1868.8947 583.27078 C 1862.3135 592.88307 1850.2472 605.16207 1844.6604 607.93289 C 1834.7615 612.8423 1829.9669 611.66914 1823.7658 602.81765 L 1829.4416 608.54226 C 1827.3867 606.5069 1827.1434 599.57361 1828.8986 593.10086 C 1832.4259 580.09294 1843.4875 564.57987 1861.0217 548.05203 C 1870.6389 538.98693 1894.8479 520.12499 1895.7365 521.00515 C 1895.7685 521.03675 1895.9769 520.64799 1896.0549 520.57156 C 1896.6499 517.32483 1897.159 514.10734 1897.5334 511.14187 z M 1569.3596 513.42507 C 1569.5108 519.74167 1569.8498 526.09791 1570.3635 532.06179 L 1570.3635 532.06375 C 1570.8772 538.02746 1571.5667 543.60028 1572.4221 548.34695 C 1570.7111 538.8525 1569.6621 526.05957 1569.3596 513.42507 z M 1921.4338 513.56375 C 1921.0164 516.90588 1920.4696 520.24301 1919.7873 523.595 C 1918.4227 530.29897 1916.5212 537.05703 1914.0549 544.01101 C 1917.7541 533.58069 1920.181 523.58945 1921.4338 513.56375 z M 1865.0236 619.25125 C 1864.2846 619.83541 1863.5571 620.38811 1862.8205 620.92703 C 1863.5541 620.39031 1864.2877 619.83283 1865.0236 619.25125 z M 1813.9768 624.00711 C 1815.8573 625.40358 1817.7548 626.78076 1819.7619 627.75711 C 1817.7439 626.77546 1815.8312 625.46498 1813.9768 624.00711 z M 1413.969 654.96609 C 1413.5364 655.10622 1413.1809 656.62392 1412.8752 658.88992 C 1413.1865 656.69147 1413.538 655.10569 1413.969 654.96609 z M 1412.7268 660.15945 C 1412.5382 661.89349 1412.4074 664.45877 1412.2775 667.01492 C 1412.414 664.50161 1412.5323 661.85335 1412.7268 660.15945 z M 1412.0627 673.9075 C 1411.8194 683.14037 1411.7579 694.63191 1412.0607 709.07351 C 1411.7554 694.5156 1411.7959 683.0228 1412.0627 673.9075 z M 1678.5998 698.0032 C 1675.9199 698.55971 1670.5163 698.68901 1664.9221 698.6282 C 1670.3618 698.67247 1675.9951 698.54486 1678.5998 698.0032 z M 1412.0627 709.15554 C 1412.4826 723.10257 1412.7297 735.61894 1413.6037 753.22586 C 1412.7938 736.9106 1412.3417 722.40922 1412.0627 709.15554 z M 1632.719 712.25515 C 1632.0233 712.63068 1631.3173 712.99676 1630.5783 713.36453 C 1631.3137 712.99849 1632.0265 712.62888 1632.719 712.25515 z M 1625.6838 715.48757 C 1622.375 716.89746 1618.7835 718.2146 1614.8654 719.45632 C 1618.7704 718.2182 1622.3843 716.89281 1625.6838 715.48757 z M 1610.1115 720.93289 C 1604.5023 722.5098 1598.5724 723.95982 1592.0822 725.11843 C 1598.5652 723.9611 1604.5074 722.50756 1610.1115 720.93289 z M 1048.5315 809.88211 C 1056.396 816.83351 1064.3882 823.39288 1072.5041 829.55984 C 1080.6201 835.72705 1088.8587 841.50051 1097.217 846.8782 C 1080.5018 836.12303 1064.2598 823.78437 1048.5315 809.88211 z M 1403.6838 842.0325 C 1400.0999 850.90908 1395.5428 858.8588 1389.9299 866.1907 C 1395.5432 858.85845 1400.0996 850.90958 1403.6838 842.0325 z M 1097.219 846.88015 C 1105.5765 852.25728 1114.0542 857.23824 1122.6447 861.82156 C 1131.2359 866.40511 1139.9411 870.59155 1148.7561 874.37625 C 1157.571 878.16094 1166.4956 881.54393 1175.5256 884.52468 C 1184.5555 887.50549 1193.6903 890.08303 1202.926 892.25515 C 1212.1612 894.42707 1221.4982 896.19355 1230.9299 897.55203 C 1235.2963 898.18092 1238.3528 898.39722 1241.6643 898.6907 C 1238.3245 898.37584 1235.2957 898.1828 1230.9299 897.55398 C 1202.6326 893.47825 1175.2012 885.73019 1148.7561 874.37625 C 1131.1259 866.80695 1113.935 857.63566 1097.219 846.88015 z M 945.97286 866.55789 C 946.71742 868.51748 947.45534 870.47714 948.22481 872.43484 C 947.45507 870.47648 946.71768 868.51815 945.97286 866.55789 z M 1380.7072 876.76492 C 1375.8189 881.72808 1370.3628 886.33781 1364.4123 890.55593 C 1370.3626 886.3379 1375.8189 881.72808 1380.7072 876.76492 z M 1246.8752 899.24148 C 1248.5829 899.34467 1250.5229 899.31824 1252.3068 899.35281 C 1250.7154 899.31975 1248.3657 899.32445 1246.8752 899.24148 z M 959.56856 899.32156 C 960.24836 900.82046 960.98358 902.31261 961.67794 903.80984 C 960.98334 902.31212 960.24859 900.82095 959.56856 899.32156 z M 1299.3986 917.03445 C 1295.6144 917.74742 1290.3027 918.2465 1284.2229 918.58132 C 1290.1843 918.2205 1295.6479 917.74111 1299.3986 917.03445 z M 973.74239 928.33718 C 974.50289 929.79879 975.22387 931.26634 975.99825 932.72586 C 975.22357 931.2658 974.50318 929.79933 973.74239 928.33718 z M 989.86934 957.3489 C 996.65377 968.86175 1003.7507 980.31784 1011.3967 991.65164 C 1003.7504 980.31723 996.65413 968.86239 989.86934 957.3489 z M 1101.3381 1205.0637 C 1103.6231 1208.3713 1106.5814 1211.7419 1109.8947 1215.1302 C 1106.5794 1211.7403 1103.6241 1208.3728 1101.3381 1205.0637 z M 1113.3205 1218.3509 C 1115.8461 1220.7238 1118.5558 1223.1035 1121.5412 1225.4915 C 1118.5532 1223.1017 1115.848 1220.7256 1113.3205 1218.3509 z M 1828.0744 1227.9114 C 1815.9139 1230.8451 1801.6631 1234.9531 1784.0315 1240.5442 C 1779.4146 1242.0082 1771.8612 1244.1766 1767.2443 1245.3626 C 1762.6275 1246.5486 1751.0418 1249.7458 1741.5002 1252.468 C 1751.0417 1249.7458 1762.6256 1246.5466 1767.2424 1245.3606 C 1771.8593 1244.1746 1779.4146 1242.0063 1784.0315 1240.5423 C 1801.6639 1234.9509 1815.9136 1230.8449 1828.0744 1227.9114 z M 1126.2053 1229.0891 C 1129.4089 1231.476 1132.8657 1233.8614 1136.4924 1236.2415 C 1132.8617 1233.8589 1129.412 1231.4785 1126.2053 1229.0891 z M 1141.4377 1239.4856 C 1146.9044 1242.8881 1152.6685 1246.2756 1158.924 1249.6145 C 1152.6676 1246.2751 1146.9051 1242.8886 1141.4377 1239.4856 z M 1248.135 1285.4485 C 1251.3932 1286.415 1254.6955 1287.2875 1257.9826 1288.1927 C 1254.6966 1287.2877 1251.3922 1286.4147 1248.135 1285.4485 z M 1283.0354 1294.4329 C 1286.4086 1295.1868 1289.7662 1295.973 1293.1701 1296.6653 C 1289.767 1295.9732 1286.4078 1295.1866 1283.0354 1294.4329 z " />
    <path
       style="font-weight:bold;font-size:96px;line-height:125%;font-family:Montserrat;-inkscape-font-specification:'Montserrat Bold';text-align:justify;letter-spacing:0px;white-space:pre;fill:#ffffff;stroke-width:0.202144;stroke-linejoin:round;paint-order:markers fill stroke"
       d="m 1221.968,766.23298 v -67.2 h 50.784 v 12.48 h -35.328 v 42.24 H 1274 v 12.48 z m 14.304,-28.032 v -12.096 h 32.352 v 12.096 z m 72.192,29.184 q -8.064,0 -15.456,-2.112 -7.392,-2.208 -11.904,-5.664 l 5.28,-11.712 q 4.32,3.072 10.176,5.088 5.952,1.92 12,1.92 4.608,0 7.392,-0.864 2.88,-0.96 4.224,-2.592 1.344,-1.632 1.344,-3.744 0,-2.688 -2.112,-4.224 -2.112,-1.632 -5.568,-2.592 -3.456,-1.056 -7.68,-1.92 -4.128,-0.96 -8.352,-2.304 -4.128,-1.344 -7.584,-3.456 -3.456,-2.112 -5.664,-5.568 -2.112,-3.456 -2.112,-8.832 0,-5.76 3.072,-10.464 3.168,-4.8 9.408,-7.584 6.336,-2.88 15.84,-2.88 6.336,0 12.48,1.536 6.144,1.44 10.848,4.416 l -4.8,11.808 q -4.704,-2.688 -9.408,-3.936 -4.704,-1.344 -9.216,-1.344 -4.512,0 -7.392,1.056 -2.88,1.056 -4.128,2.784 -1.248,1.632 -1.248,3.84 0,2.592 2.112,4.224 2.112,1.536 5.568,2.496 3.456,0.96 7.584,1.92 4.224,0.96 8.352,2.208 4.224,1.248 7.68,3.36 3.456,2.112 5.568,5.568 2.208,3.456 2.208,8.736 0,5.664 -3.168,10.368 -3.168,4.704 -9.504,7.584 -6.24,2.88 -15.84,2.88 z m 39.168,-1.152 v -67.2 h 29.088 q 9.024,0 15.552,2.976 6.528,2.88 10.08,8.352 3.552,5.472 3.552,13.056 0,7.488 -3.552,12.96 -3.552,5.472 -10.08,8.448 -6.528,2.88 -15.552,2.88 h -20.448 l 6.912,-7.008 v 25.536 z m 15.552,-23.808 -6.912,-7.392 h 19.584 q 7.2,0 10.752,-3.072 3.552,-3.072 3.552,-8.544 0,-5.568 -3.552,-8.64 -3.552,-3.072 -10.752,-3.072 h -19.584 l 6.912,-7.392 z m 53.76,23.808 v -67.2 h 50.784 v 12.48 H 1432.4 v 42.24 h 36.576 v 12.48 z m 14.304,-28.032 v -12.096 h 32.352 v 12.096 z m 50.112,28.032 v -67.2 h 28.704 q 14.016,0 21.792,6.528 7.776,6.432 7.776,17.856 0,7.488 -3.552,12.96 -3.552,5.376 -10.08,8.256 -6.528,2.88 -15.552,2.88 H 1490 l 6.912,-6.816 v 25.536 z m 42.72,0 -16.8,-24.384 h 16.608 l 16.992,24.384 z m -27.168,-23.808 -6.912,-7.296 h 19.584 q 7.2,0 10.752,-3.072 3.552,-3.168 3.552,-8.64 0,-5.568 -3.552,-8.64 -3.552,-3.072 -10.752,-3.072 H 1490 l 6.912,-7.392 z m 46.176,23.808 29.952,-67.2 h 15.36 l 30.048,67.2 h -16.32 l -24.576,-59.328 h 6.144 l -24.672,59.328 z m 14.976,-14.4 4.128,-11.808 h 34.56 l 4.224,11.808 z m 67.3921,14.4 v -67.2 h 12.864 l 39.648,48.384 h -6.24 v -48.384 h 15.36 v 67.2 h -12.768 l -39.744,-48.384 h 6.24 v 48.384 z m 91.4881,0 v -54.528 h -21.504 v -12.672 h 58.56 v 12.672 h -21.504 v 54.528 z m 41.088,0 v -10.08 l 41.568,-50.112 1.92,5.664 h -42.72 v -12.672 h 56.544 v 10.08 l -41.472,50.112 -1.92,-5.664 h 44.832 v 12.672 z m 59.9039,0 29.952,-67.2 h 15.36 l 30.048,67.2 h -16.32 l -24.576,-59.328 h 6.144 l -24.672,59.328 z m 14.976,-14.4 4.128,-11.808 h 34.56 l 4.224,11.808 z"
       id="text563"
       transform="matrix(2.4735013,0,0,2.4735013,-1467.713,-932.9534)"
       aria-label="ESPERANTZA" />
    <path
       style="font-style:italic;font-weight:500;font-size:96px;line-height:125%;font-family:Montserrat;-inkscape-font-specification:'Montserrat Medium Italic';text-align:center;letter-spacing:0px;white-space:pre;fill:#ffffff;stroke-width:0.25917;stroke-linejoin:round;paint-order:markers fill stroke"
       d="m 2219.4731,728.02498 h 34.56 l -1.632,8.16 h -34.56 z m -5.184,29.856 h 39.264 l -1.632,8.352 h -48.864 l 13.44,-67.2 h 47.424 l -1.632,8.352 h -37.92 z m 73.824,9.12 q -5.088,0 -9.984,-1.056 -4.8,-1.152 -8.832,-2.976 -3.936,-1.824 -6.336,-4.128 l 4.224,-7.68 q 2.592,2.304 6.048,4.032 3.552,1.728 7.488,2.688 4.032,0.96 8.256,0.96 5.376,0 9.504,-1.344 4.128,-1.344 6.336,-3.84 2.304,-2.592 2.304,-6.24 0,-2.976 -1.92,-4.896 -1.92,-1.92 -4.992,-3.072 -2.976,-1.248 -6.72,-2.208 -3.648,-1.056 -7.392,-2.304 -3.648,-1.344 -6.72,-3.264 -2.976,-1.92 -4.896,-4.896 -1.824,-3.072 -1.824,-7.68 0,-6.432 3.552,-11.04 3.552,-4.704 9.792,-7.2 6.336,-2.592 14.592,-2.592 6.24,0 11.904,1.44 5.664,1.44 9.696,4.224 l -3.84,7.872 q -3.744,-2.688 -8.448,-4.032 -4.704,-1.344 -9.792,-1.344 -5.472,0 -9.504,1.44 -4.032,1.44 -6.24,4.128 -2.208,2.592 -2.304,6.144 0,3.072 1.824,4.992 1.824,1.92 4.896,3.168 3.072,1.248 6.72,2.4 3.744,1.056 7.392,2.304 3.648,1.152 6.72,3.072 3.168,1.824 4.992,4.704 1.92,2.88 1.92,7.296 0,6.432 -3.648,11.232 -3.552,4.704 -9.984,7.2 -6.336,2.496 -14.784,2.496 z m 50.9761,-17.376 1.248,-11.52 45.312,-39.072 h 12.48 l -36.192,31.2 -5.952,4.896 z m -12.096,16.608 13.44,-67.2 h 9.6 l -13.44,67.2 z m 48.288,0 -21.792,-32.064 6.432,-6.432 26.112,38.496 z m 7.8353,0 43.968,-67.2 h 9.504 l 16.992,67.2 h -9.504 l -14.976,-62.016 h 3.84 l -39.456,62.016 z m 16.32,-16.8 4.224,-7.68 h 37.728 l 1.344,7.68 z m 91.2961,17.568 q -9.216,0 -15.36,-3.648 -6.048,-3.648 -8.448,-10.272 -2.4,-6.72 -0.576,-15.84 l 7.584,-38.208 h 9.504 l -7.584,38.112 q -2.112,10.56 2.112,15.936 4.224,5.376 13.728,5.376 8.928,0 14.4,-5.088 5.472,-5.184 7.584,-16.32 l 7.68,-38.016 h 9.312 l -7.68,38.688 q -2.976,14.688 -11.04,21.984 -8.064,7.296 -21.216,7.296 z m 57.1863,-0.768 11.712,-58.848 h -22.944 l 1.632,-8.352 h 55.584 l -1.728,8.352 h -22.944 l -11.808,58.848 z"
       id="text563-5"
       transform="matrix(1.929241,0,0,1.929241,-2695.4017,-324.10958)"
       aria-label="ESKAUT" />
  </g>
</svg>
